<svg width="35" height="35" viewBox="0 0 35 35" fill="none" xmlns="http://www.w3.org/2000/svg">
<g clip-path="url(#clip0_390_4868)">
<path d="M17.4185 30.4828C24.6336 30.4828 30.4826 24.6338 30.4826 17.4187C30.4826 10.2036 24.6336 4.35468 17.4185 4.35468C10.2035 4.35468 4.35449 10.2036 4.35449 17.4187C4.35449 24.6338 10.2035 30.4828 17.4185 30.4828Z" stroke="white" stroke-width="2" stroke-linecap="round" stroke-linejoin="round"/>
<path d="M22.8623 17.4187C22.8623 26.1281 17.4189 30.4828 17.4189 30.4828C17.4189 30.4828 11.9756 26.1281 11.9756 17.4187C11.9756 8.70936 17.4189 4.35468 17.4189 4.35468C17.4189 4.35468 22.8623 8.70936 22.8623 17.4187Z" stroke="white" stroke-width="2" stroke-linecap="round" stroke-linejoin="round"/>
<path d="M5.09766 13.064H29.7397" stroke="white" stroke-width="2" stroke-linecap="round" stroke-linejoin="round"/>
<path d="M5.09766 21.7734H29.7397" stroke="white" stroke-width="2" stroke-linecap="round" stroke-linejoin="round"/>
</g>
<defs>
<clipPath id="clip0_390_4868">
<rect width="34.8374" height="34.8374" fill="white"/>
</clipPath>
</defs>
</svg>
