<svg width="26" height="26" viewBox="0 0 26 26" fill="none" xmlns="http://www.w3.org/2000/svg">
<path d="M14.5693 4.63825C14.5968 4.53572 14.6441 4.4396 14.7087 4.35538C14.7733 4.27116 14.8538 4.20049 14.9457 4.14741C15.0376 4.09433 15.1391 4.05988 15.2443 4.04603C15.3496 4.03218 15.4565 4.03919 15.559 4.06668C17.0567 4.45744 18.4231 5.24037 19.5176 6.33484C20.612 7.42931 21.395 8.79575 21.7857 10.2934C21.8132 10.3959 21.8202 10.5029 21.8064 10.6081C21.7925 10.7133 21.7581 10.8148 21.705 10.9067C21.6519 10.9986 21.5812 11.0791 21.497 11.1437C21.4128 11.2083 21.3167 11.2557 21.2142 11.2831C21.1459 11.301 21.0757 11.3102 21.0051 11.3103C20.8271 11.3103 20.6541 11.2515 20.5129 11.1431C20.3717 11.0346 20.2703 10.8825 20.2245 10.7105C19.9058 9.48789 19.2668 8.37239 18.3734 7.47899C17.48 6.58559 16.3645 5.9466 15.1419 5.62791C15.0393 5.60059 14.9431 5.55331 14.8587 5.48878C14.7744 5.42424 14.7036 5.34371 14.6504 5.25179C14.5973 5.15987 14.5627 5.05837 14.5488 4.9531C14.5349 4.84782 14.5419 4.74083 14.5693 4.63825ZM14.334 8.85943C15.7266 9.23106 16.6214 10.1258 16.993 11.5184C17.0388 11.6904 17.1402 11.8425 17.2814 11.9509C17.4225 12.0594 17.5956 12.1182 17.7736 12.1182C17.8441 12.118 17.9144 12.1089 17.9826 12.091C18.0852 12.0635 18.1813 12.0162 18.2655 11.9516C18.3497 11.887 18.4204 11.8065 18.4735 11.7146C18.5265 11.6227 18.561 11.5212 18.5749 11.416C18.5887 11.3107 18.5817 11.2038 18.5542 11.1013C18.0372 9.16643 16.686 7.81525 14.7511 7.2982C14.5441 7.2429 14.3235 7.2721 14.138 7.37938C13.9525 7.48667 13.8173 7.66325 13.762 7.87028C13.7066 8.07732 13.7358 8.29784 13.8431 8.48334C13.9504 8.66884 14.127 8.80413 14.334 8.85943ZM22.6088 18.4884C22.4287 19.8568 21.7567 21.1128 20.7182 22.0219C19.6798 22.931 18.3459 23.431 16.9657 23.4286C8.94748 23.4286 2.42384 16.9049 2.42384 8.8867C2.42136 7.50653 2.92138 6.17264 3.83049 5.13419C4.73961 4.09573 5.99565 3.42371 7.36403 3.24365C7.71006 3.20139 8.06048 3.27219 8.36297 3.44545C8.66546 3.61872 8.9038 3.88517 9.04241 4.20502L11.1752 8.96648V8.9786C11.2813 9.22344 11.3252 9.49075 11.3028 9.75666C11.2804 10.0226 11.1925 10.2788 11.047 10.5025C11.0288 10.5297 11.0096 10.555 10.9894 10.5802L8.88689 13.0725C9.64327 14.6095 11.251 16.2031 12.8081 16.9615L15.2661 14.8701C15.2903 14.8498 15.3156 14.8309 15.3419 14.8135C15.5653 14.6645 15.8224 14.5735 16.0899 14.5488C16.3574 14.5241 16.6268 14.5665 16.8738 14.6721L16.8869 14.6782L21.6444 16.81C21.9648 16.9481 22.2319 17.1863 22.4057 17.4888C22.5796 17.7913 22.6508 18.142 22.6088 18.4884ZM21.0051 18.2864C21.0051 18.2864 20.998 18.2864 20.994 18.2864L16.2477 16.1607L13.7887 18.2521C13.7649 18.2723 13.7399 18.2912 13.714 18.3086C13.4815 18.4637 13.2127 18.5559 12.9339 18.5761C12.6551 18.5962 12.3759 18.5438 12.1235 18.4237C10.232 17.5098 8.34662 15.6386 7.43169 13.7673C7.31054 13.5167 7.25618 13.2391 7.27387 12.9613C7.29156 12.6835 7.38071 12.415 7.53268 12.1818C7.54981 12.1545 7.56906 12.1285 7.59024 12.1041L9.69477 9.60874L7.57408 4.86244C7.57369 4.85841 7.57369 4.85435 7.57408 4.85032C6.59478 4.97807 5.69563 5.45842 5.04502 6.20142C4.39441 6.94442 4.03695 7.89911 4.0396 8.8867C4.04334 12.3138 5.4064 15.5994 7.8297 18.0227C10.253 20.446 13.5386 21.8091 16.9657 21.8128C17.9527 21.8162 18.9071 21.46 19.6506 20.8108C20.394 20.1616 20.8755 19.2638 21.0051 18.2854V18.2864Z" fill="white"/>
</svg>
